<svg width="132" height="132" viewBox="0 0 132 132" fill="none" xmlns="http://www.w3.org/2000/svg">
<path d="M115.368 48.2876L115.295 49.1105L115.825 49.7446L129.395 66L115.825 82.2554L115.295 82.8895L115.368 83.7124L117.256 105.186L97.277 109.94L96.4285 110.142L95.9991 110.901L85.5571 129.365L66.8205 120.936L65.9972 120.566L65.1748 120.938L46.4406 129.424L36.0009 110.964L35.5715 110.205L34.723 110.003L14.7433 105.248L16.6324 83.7119L16.7045 82.8893L16.1753 82.2554L2.60338 65.9977L16.1776 49.679L16.7043 49.0458L16.6324 48.2252L14.7437 26.6935L34.7177 21.9984L35.5699 21.798L36.0009 21.036L46.443 2.57227L65.1795 11.0011L66 11.3702L66.8205 11.0011L85.5548 2.57327L95.9978 21.0965L96.4269 21.8577L97.277 22.06L117.256 26.8143L115.368 48.2876Z" stroke="#F8F200" stroke-width="4"/>
<path d="M53.9516 92.2611L48.1822 86.4917C47.7403 86.0498 47.2673 85.7563 46.7632 85.6113C46.2591 85.4525 45.7412 85.4594 45.2095 85.632C44.6778 85.8046 44.153 86.1499 43.6351 86.6678C43.1517 87.1512 42.8099 87.6587 42.6096 88.1904C42.4163 88.7152 42.3507 89.2159 42.4128 89.6923C42.4819 90.1619 42.6718 90.5521 42.9825 90.8628L41.0663 92.779C40.6658 92.3785 40.3723 91.8779 40.1859 91.2771C39.9994 90.6764 39.9407 90.0238 40.0098 89.3195C40.0788 88.6013 40.2929 87.8762 40.652 87.1443C41.011 86.3985 41.5289 85.6873 42.2057 85.0105C43.0205 84.1957 43.8768 83.6156 44.7745 83.2704C45.6791 82.9182 46.5871 82.8457 47.4986 83.0529C48.4101 83.2462 49.2836 83.7607 50.1192 84.5962L55.3396 89.8166C55.7125 90.1895 56.1406 90.5555 56.624 90.9146C57.1143 91.2668 57.577 91.5292 58.012 91.7018L58.1777 91.8675L56.1786 93.8666C55.861 93.7423 55.4915 93.5248 55.0703 93.2141C54.6422 92.8964 54.2693 92.5788 53.9516 92.2611ZM49.4045 87.0511L50.7717 88.3769L48.8348 90.3138C48.2893 90.8594 47.8473 91.3911 47.509 91.909C47.1637 92.42 46.9324 92.9068 46.815 93.3694C46.6976 93.8321 46.6941 94.2706 46.8046 94.6849C46.9082 95.0923 47.1326 95.4687 47.4779 95.8139C47.8301 96.1661 48.2306 96.4078 48.6794 96.539C49.1283 96.6702 49.5978 96.6633 50.0881 96.5183C50.5784 96.3595 51.0583 96.0453 51.5279 95.5757C52.1148 94.9887 52.5084 94.3465 52.7087 93.6491C52.9089 92.9517 52.9607 92.2922 52.8641 91.6707C52.7743 91.0423 52.5706 90.5486 52.2529 90.1895L53.9931 90.2931C54.2348 90.6315 54.4247 91.0838 54.5628 91.65C54.7009 92.2162 54.7527 92.8412 54.7181 93.5248C54.6836 94.1946 54.5282 94.8817 54.252 95.5861C53.9758 96.2766 53.5339 96.9257 52.9262 97.5334C52.1666 98.2929 51.3518 98.8108 50.4817 99.0871C49.6185 99.3564 48.7795 99.4013 47.9647 99.2217C47.1499 99.0284 46.4317 98.621 45.8103 97.9995C45.2095 97.3987 44.7986 96.7531 44.5776 96.0625C44.3498 95.3651 44.3049 94.6435 44.443 93.8977C44.5742 93.145 44.8711 92.3785 45.3338 91.5982C45.7964 90.8179 46.411 90.0445 47.1775 89.278L49.4045 87.0511ZM51.6729 75.9576L62.8803 87.165L60.964 89.0812L49.7567 77.8739L51.6729 75.9576ZM59.0271 68.6034L60.1354 80.3391L57.4527 83.0218L55.4846 81.6338L57.6805 79.4379L56.6965 70.934L59.0271 68.6034ZM68.1732 81.8721L58.9753 80.9191L58.8199 78.2985L70.6073 79.4379L68.1732 81.8721ZM72.4407 77.6046L61.2333 66.3972L63.1496 64.481L72.7825 74.1139L77.9408 68.9556L68.3078 59.3227L70.2344 57.3961L81.4418 68.6034L72.4407 77.6046ZM81.1932 65.7032L85.9061 70.789L84.197 72.4981L80.8721 69.1731L79.4116 70.6336L77.8372 69.0592L81.1932 65.7032ZM83.8863 60.0892L80.8825 46.748L82.8091 44.8215L94.0164 56.0288L92.0898 57.9554L83.9174 49.7829L86.9212 63.1241L85.0153 65.0299L73.808 53.8226L75.7138 51.9167L83.8863 60.0892ZM94.0164 45.3394L96.088 43.2678L98.1907 51.8545L96.1191 53.9261L94.0164 45.3394ZM89.7593 37.8712L94.4411 33.1894L105.648 44.3968L103.732 46.313L94.0786 36.6593L91.313 39.4249C90.7675 39.9705 90.4153 40.5091 90.2565 41.0408C90.0907 41.5656 90.0735 42.0524 90.2047 42.5013C90.3359 42.9501 90.5569 43.3299 90.8676 43.6406C91.1714 43.9445 91.5374 44.1654 91.9655 44.3036C92.3868 44.4348 92.8425 44.4348 93.3328 44.3036C93.8231 44.1723 94.3134 43.8616 94.8036 43.3713L98.315 39.86L99.8894 41.4344L96.3781 44.9457C95.7359 45.5879 95.0798 46.0713 94.41 46.3959C93.7402 46.7204 93.0808 46.9034 92.4317 46.9448C91.7756 46.9794 91.1507 46.8792 90.5569 46.6445C89.9561 46.4028 89.4106 46.0368 88.9203 45.5465C88.43 45.0562 88.0709 44.5107 87.8431 43.9099C87.6221 43.3023 87.5358 42.6635 87.5841 41.9937C87.6393 41.317 87.8465 40.6334 88.2056 39.9428C88.5647 39.2385 89.0826 38.548 89.7593 37.8712Z" fill="#F8F200"/>
</svg>
